<svg width="87" height="87" viewBox="0 0 87 87" fill="none" xmlns="http://www.w3.org/2000/svg">
<path d="M43.13 86.26C66.95 86.26 86.26 66.95 86.26 43.13C86.26 19.31 66.95 0 43.13 0C19.31 0 0 19.31 0 43.13C0 66.95 19.31 86.26 43.13 86.26Z" fill="#FC8001"/>
<path d="M43.21 2.39999C37.9934 2.39411 32.8379 3.52199 28.1004 5.70556C23.3628 7.88913 19.1564 11.0762 15.7724 15.0462C12.3883 19.0161 9.90744 23.6741 8.50152 28.6976C7.09561 33.7211 6.79824 38.9902 7.62999 44.14C12.29 31.97 25.01 23.23 39.99 23.23C52.5 23.23 63.44 29.32 69.42 38.42H69.53C73.0157 38.3299 76.4146 39.5139 79.09 41.75C79.19 40.66 79.24 39.56 79.24 38.44C79.24 28.8922 75.4471 19.7354 68.6958 12.9841C61.9445 6.23283 52.7878 2.43999 43.24 2.43999" fill="#FDCC01"/>
<path d="M79.09 41.75C76.4146 39.5139 73.0157 38.3299 69.53 38.42H69.42C58.82 38.49 47.67 47.7 44.42 59.06C42.72 65.11 43.62 70.55 46.42 74.32C45.35 74.42 44.25 74.48 43.15 74.48C34.5785 74.4866 26.2858 71.4346 19.7636 65.8729C13.2414 60.3113 8.91764 52.6049 7.57001 44.14C6.33148 47.4113 5.70441 50.8822 5.72001 54.38C5.75557 58.6561 6.71286 62.8742 8.5266 66.7467C10.3403 70.6193 12.9679 74.0551 16.23 76.82C21.3473 80.8958 27.3241 83.755 33.7088 85.1815C40.0934 86.6079 46.7188 86.5643 53.0842 85.0539C59.4495 83.5435 65.3881 80.6058 70.4513 76.4629C75.5144 72.3201 79.5695 67.0804 82.31 61.14C82.56 60.46 82.79 59.76 82.99 59.06C84.99 51.81 83.33 45.43 79.09 41.75Z" fill="#FD0024"/>
</svg>
